<svg width="1500" height="1500" viewBox="0 0 1500 1500" fill="none"
  xmlns="http://www.w3.org/2000/svg">
  <rect width="1500" height="1500" rx="200" fill="#5E91DE"/>
  <circle cx="361.741" cy="553.475" r="175" transform="rotate(3.18106 361.741 553.475)" stroke="black" stroke-width="50"/>
  <path d="M524.294 611.084L965.055 771.791L1357.89 1128.14" stroke="black" stroke-width="50"/>
  <path d="M552.057 625.147L724.453 839.043L863.713 721.089" stroke="black" stroke-width="50"/>
  <path d="M558.602 615.495L752.582 558.171L842.745 719.924" stroke="black" stroke-width="50"/>
  <path d="M958.998 763.645L1235.92 617.083L1368.84 1120.23" stroke="black" stroke-width="50"/>
  <path d="M123.668 331.923C125.2 304.351 148.794 283.242 176.365 284.775V284.775L131.972 1083.54L82.0492 1080.77L123.668 331.923Z" fill="#793C0F"/>
  <path d="M126.646 736.712C109.507 798.697 425.071 726.393 676.963 884.524C928.856 1042.66 1243.39 1104.76 1359.58 1124.73" stroke="#793C0F" stroke-width="50"/>
  <path d="M1356.45 1098.51L1395.05 1104.07L1393.38 1115.66C1390.32 1136.96 1370.57 1151.74 1349.28 1148.68V1148.68C1349.25 1148.67 1349.24 1148.65 1349.24 1148.63L1356.45 1098.51Z" fill="#793C0F"/>
</svg>
