<svg width="360" height="56" viewBox="0 0 360 56" fill="none"
  xmlns="http://www.w3.org/2000/svg">
  <rect width="360" height="56" fill="white"/>
  <path d="M23 17V28H29V22H33V28H39V17L31 10L23 17Z" fill="#030303"/>
  <path d="M22.0469 43H20.916V39.0566H16.6152V43H15.4902V34.4688H16.6152V38.1367H20.916V34.4688H22.0469V43ZM23.5879 39.7715C23.5879 39.1504 23.709 38.5918 23.9512 38.0957C24.1973 37.5996 24.5371 37.2168 24.9707 36.9473C25.4082 36.6777 25.9062 36.543 26.4648 36.543C27.3281 36.543 28.0254 36.8418 28.5566 37.4395C29.0918 38.0371 29.3594 38.832 29.3594 39.8242V39.9004C29.3594 40.5176 29.2402 41.0723 29.002 41.5645C28.7676 42.0527 28.4297 42.4336 27.9883 42.707C27.5508 42.9805 27.0469 43.1172 26.4766 43.1172C25.6172 43.1172 24.9199 42.8184 24.3848 42.2207C23.8535 41.623 23.5879 40.832 23.5879 39.8477V39.7715ZM24.6777 39.9004C24.6777 40.6035 24.8398 41.168 25.1641 41.5938C25.4922 42.0195 25.9297 42.2324 26.4766 42.2324C27.0273 42.2324 27.4648 42.0176 27.7891 41.5879C28.1133 41.1543 28.2754 40.5488 28.2754 39.7715C28.2754 39.0762 28.1094 38.5137 27.7773 38.084C27.4492 37.6504 27.0117 37.4336 26.4648 37.4336C25.9297 37.4336 25.498 37.6465 25.1699 38.0723C24.8418 38.498 24.6777 39.1074 24.6777 39.9004ZM31.7383 36.6602L31.7676 37.3633C32.2324 36.8164 32.8594 36.543 33.6484 36.543C34.5352 36.543 35.1387 36.8828 35.459 37.5625C35.6699 37.2578 35.9434 37.0117 36.2793 36.8242C36.6191 36.6367 37.0195 36.543 37.4805 36.543C38.8711 36.543 39.5781 37.2793 39.6016 38.752V43H38.5176V38.8164C38.5176 38.3633 38.4141 38.0254 38.207 37.8027C38 37.5762 37.6523 37.4629 37.1641 37.4629C36.7617 37.4629 36.4277 37.584 36.1621 37.8262C35.8965 38.0645 35.7422 38.3867 35.6992 38.793V43H34.6094V38.8457C34.6094 37.9238 34.1582 37.4629 33.2559 37.4629C32.5449 37.4629 32.0586 37.7656 31.7969 38.3711V43H30.7129V36.6602H31.7383ZM43.873 43.1172C43.0137 43.1172 42.3145 42.8359 41.7754 42.2734C41.2363 41.707 40.9668 40.9512 40.9668 40.0059V39.8066C40.9668 39.1777 41.0859 38.6172 41.3242 38.125C41.5664 37.6289 41.9023 37.2422 42.332 36.9648C42.7656 36.6836 43.2344 36.543 43.7383 36.543C44.5625 36.543 45.2031 36.8145 45.6602 37.3574C46.1172 37.9004 46.3457 38.6777 46.3457 39.6895V40.1406H42.0508C42.0664 40.7656 42.248 41.2715 42.5957 41.6582C42.9473 42.041 43.3926 42.2324 43.9316 42.2324C44.3145 42.2324 44.6387 42.1543 44.9043 41.998C45.1699 41.8418 45.4023 41.6348 45.6016 41.377L46.2637 41.8926C45.7324 42.709 44.9355 43.1172 43.873 43.1172ZM43.7383 37.4336C43.3008 37.4336 42.9336 37.5938 42.6367 37.9141C42.3398 38.2305 42.1562 38.6758 42.0859 39.25H45.2617V39.168C45.2305 38.6172 45.082 38.1914 44.8164 37.8906C44.5508 37.5859 44.1914 37.4336 43.7383 37.4336Z" fill="black"/>
  <path fill-rule="evenodd" clip-rule="evenodd" d="M91.1387 15.8385C89.0889 16.9873 88.3866 19.5315 89.5701 21.5212C90.2318 22.6338 91.2588 23.3847 92.36 23.6487C90.8428 24.9289 90.4215 27.1127 91.4643 28.8659C92.6477 30.8556 95.2688 31.5373 97.3187 30.3885L107.523 24.67C109.573 23.5212 110.275 20.977 109.091 18.9873C108.438 17.8896 107.348 17.19 106.157 16.9763C107.791 15.7154 108.272 13.4502 107.197 11.6427C106.014 9.65296 103.393 8.97124 101.343 10.12L91.1387 15.8385ZM103.24 17.4632L105.093 16.4247C106.63 15.5631 107.157 13.6549 106.269 12.1627C105.382 10.6704 103.416 10.1591 101.879 11.0207L91.6745 16.7392C90.1371 17.6007 89.6103 19.5089 90.4979 21.0012C91.3855 22.4935 93.033 23.1832 94.4248 22.4032L94.9605 23.3038L93.5687 24.0839C92.0313 24.9454 91.5046 26.8536 92.3922 28.3459C93.2798 29.8381 95.2456 30.3494 96.783 29.4879L106.987 23.7693C108.524 22.9078 109.051 20.9996 108.164 19.5073C107.276 18.0151 105.31 17.5038 103.773 18.3653L103.237 17.4647C103.238 17.4642 103.239 17.4637 103.24 17.4632Z" fill="black"/>
  <path d="M97.2781 18.635C97.2781 18.2573 97.6937 18.0243 98.0307 18.2132L102.316 20.6149C102.657 20.8059 102.662 21.2839 102.325 21.4728L98.0392 23.8746C97.7022 24.0634 97.2781 23.8204 97.2781 23.4385L97.2781 18.635Z" fill="black"/>
  <path d="M85.0039 41.1973C84.0391 40.9199 83.3359 40.5801 82.8945 40.1777C82.457 39.7715 82.2383 39.2715 82.2383 38.6777C82.2383 38.0059 82.5059 37.4512 83.041 37.0137C83.5801 36.5723 84.2793 36.3516 85.1387 36.3516C85.7246 36.3516 86.2461 36.4648 86.7031 36.6914C87.1641 36.918 87.5195 37.2305 87.7695 37.6289C88.0234 38.0273 88.1504 38.4629 88.1504 38.9355H87.0195C87.0195 38.4199 86.8555 38.0156 86.5273 37.7227C86.1992 37.4258 85.7363 37.2773 85.1387 37.2773C84.584 37.2773 84.1504 37.4004 83.8379 37.6465C83.5293 37.8887 83.375 38.2266 83.375 38.6602C83.375 39.0078 83.5215 39.3027 83.8145 39.5449C84.1113 39.7832 84.6133 40.002 85.3203 40.2012C86.0312 40.4004 86.5859 40.6211 86.9844 40.8633C87.3867 41.1016 87.6836 41.3809 87.875 41.7012C88.0703 42.0215 88.168 42.3984 88.168 42.832C88.168 43.5234 87.8984 44.0781 87.3594 44.4961C86.8203 44.9102 86.0996 45.1172 85.1973 45.1172C84.6113 45.1172 84.0645 45.0059 83.5566 44.7832C83.0488 44.5566 82.6562 44.248 82.3789 43.8574C82.1055 43.4668 81.9688 43.0234 81.9688 42.5273H83.0996C83.0996 43.043 83.2891 43.4512 83.668 43.752C84.0508 44.0488 84.5605 44.1973 85.1973 44.1973C85.791 44.1973 86.2461 44.0762 86.5625 43.834C86.8789 43.5918 87.0371 43.2617 87.0371 42.8438C87.0371 42.4258 86.8906 42.1035 86.5977 41.877C86.3047 41.6465 85.7734 41.4199 85.0039 41.1973ZM90.5293 39.4277C91.0098 38.8379 91.6348 38.543 92.4043 38.543C93.7441 38.543 94.4199 39.2988 94.4316 40.8105V45H93.3477V40.8047C93.3438 40.3477 93.2383 40.0098 93.0312 39.791C92.8281 39.5723 92.5098 39.4629 92.0762 39.4629C91.7246 39.4629 91.416 39.5566 91.1504 39.7441C90.8848 39.9316 90.6777 40.1777 90.5293 40.4824V45H89.4453V36H90.5293V39.4277ZM95.7676 41.7715C95.7676 41.1504 95.8887 40.5918 96.1309 40.0957C96.377 39.5996 96.7168 39.2168 97.1504 38.9473C97.5879 38.6777 98.0859 38.543 98.6445 38.543C99.5078 38.543 100.205 38.8418 100.736 39.4395C101.271 40.0371 101.539 40.832 101.539 41.8242V41.9004C101.539 42.5176 101.42 43.0723 101.182 43.5645C100.947 44.0527 100.609 44.4336 100.168 44.707C99.7305 44.9805 99.2266 45.1172 98.6562 45.1172C97.7969 45.1172 97.0996 44.8184 96.5645 44.2207C96.0332 43.623 95.7676 42.832 95.7676 41.8477V41.7715ZM96.8574 41.9004C96.8574 42.6035 97.0195 43.168 97.3438 43.5938C97.6719 44.0195 98.1094 44.2324 98.6562 44.2324C99.207 44.2324 99.6445 44.0176 99.9688 43.5879C100.293 43.1543 100.455 42.5488 100.455 41.7715C100.455 41.0762 100.289 40.5137 99.957 40.084C99.6289 39.6504 99.1914 39.4336 98.6445 39.4336C98.1094 39.4336 97.6777 39.6465 97.3496 40.0723C97.0215 40.498 96.8574 41.1074 96.8574 41.9004ZM105.963 39.6328C105.799 39.6055 105.621 39.5918 105.43 39.5918C104.719 39.5918 104.236 39.8945 103.982 40.5V45H102.898V38.6602H103.953L103.971 39.3926C104.326 38.8262 104.83 38.543 105.482 38.543C105.693 38.543 105.854 38.5703 105.963 38.625V39.6328ZM108.729 37.125V38.6602H109.912V39.498H108.729V43.4297C108.729 43.6836 108.781 43.875 108.887 44.0039C108.992 44.1289 109.172 44.1914 109.426 44.1914C109.551 44.1914 109.723 44.168 109.941 44.1211V45C109.656 45.0781 109.379 45.1172 109.109 45.1172C108.625 45.1172 108.26 44.9707 108.014 44.6777C107.768 44.3848 107.645 43.9688 107.645 43.4297V39.498H106.49V38.6602H107.645V37.125H108.729ZM114.875 43.3184C114.875 43.0254 114.764 42.7988 114.541 42.6387C114.322 42.4746 113.938 42.334 113.387 42.2168C112.84 42.0996 112.404 41.959 112.08 41.7949C111.76 41.6309 111.521 41.4355 111.365 41.209C111.213 40.9824 111.137 40.7129 111.137 40.4004C111.137 39.8809 111.355 39.4414 111.793 39.082C112.234 38.7227 112.797 38.543 113.48 38.543C114.199 38.543 114.781 38.7285 115.227 39.0996C115.676 39.4707 115.9 39.9453 115.9 40.5234H114.811C114.811 40.2266 114.684 39.9707 114.43 39.7559C114.18 39.541 113.863 39.4336 113.48 39.4336C113.086 39.4336 112.777 39.5195 112.555 39.6914C112.332 39.8633 112.221 40.0879 112.221 40.3652C112.221 40.627 112.324 40.8242 112.531 40.957C112.738 41.0898 113.111 41.2168 113.65 41.3379C114.193 41.459 114.633 41.6035 114.969 41.7715C115.305 41.9395 115.553 42.1426 115.713 42.3809C115.877 42.6152 115.959 42.9023 115.959 43.2422C115.959 43.8086 115.732 44.2637 115.279 44.6074C114.826 44.9473 114.238 45.1172 113.516 45.1172C113.008 45.1172 112.559 45.0273 112.168 44.8477C111.777 44.668 111.471 44.418 111.248 44.0977C111.029 43.7734 110.92 43.4238 110.92 43.0488H112.004C112.023 43.4121 112.168 43.7012 112.438 43.916C112.711 44.127 113.07 44.2324 113.516 44.2324C113.926 44.2324 114.254 44.1504 114.5 43.9863C114.75 43.8184 114.875 43.5957 114.875 43.3184Z" fill="black"/>
  <path fill-rule="evenodd" clip-rule="evenodd" d="M172.5 43.5556C181.091 43.5556 188.056 36.5911 188.056 28C188.056 19.4089 181.091 12.4444 172.5 12.4444C163.909 12.4444 156.944 19.4089 156.944 28C156.944 36.5911 163.909 43.5556 172.5 43.5556ZM172.5 45.5C182.165 45.5 190 37.665 190 28C190 18.335 182.165 10.5 172.5 10.5C162.835 10.5 155 18.335 155 28C155 37.665 162.835 45.5 172.5 45.5Z" fill="#030303"/>
  <path fill-rule="evenodd" clip-rule="evenodd" d="M183 29.75H162V27.125H183V29.75Z" fill="black"/>
  <path fill-rule="evenodd" clip-rule="evenodd" d="M170.75 38.5L170.75 17.5L173.375 17.5L173.375 38.5L170.75 38.5Z" fill="black"/>
  <path d="M248.667 27V20L254.5 23.5L248.667 27ZM256.833 9.5H245.167V10.6667H256.833V9.5ZM260.333 13H241.667V14.1667H260.333V13ZM262.667 16.5H239.333V30.5H262.667V16.5ZM240.5 17.6667H261.5V29.3333H240.5V17.6667Z" fill="#030303"/>
  <path d="M221.004 43.1973C220.039 42.9199 219.336 42.5801 218.895 42.1777C218.457 41.7715 218.238 41.2715 218.238 40.6777C218.238 40.0059 218.506 39.4512 219.041 39.0137C219.58 38.5723 220.279 38.3516 221.139 38.3516C221.725 38.3516 222.246 38.4648 222.703 38.6914C223.164 38.918 223.52 39.2305 223.77 39.6289C224.023 40.0273 224.15 40.4629 224.15 40.9355H223.02C223.02 40.4199 222.855 40.0156 222.527 39.7227C222.199 39.4258 221.736 39.2773 221.139 39.2773C220.584 39.2773 220.15 39.4004 219.838 39.6465C219.529 39.8887 219.375 40.2266 219.375 40.6602C219.375 41.0078 219.521 41.3027 219.814 41.5449C220.111 41.7832 220.613 42.002 221.32 42.2012C222.031 42.4004 222.586 42.6211 222.984 42.8633C223.387 43.1016 223.684 43.3809 223.875 43.7012C224.07 44.0215 224.168 44.3984 224.168 44.832C224.168 45.5234 223.898 46.0781 223.359 46.4961C222.82 46.9102 222.1 47.1172 221.197 47.1172C220.611 47.1172 220.064 47.0059 219.557 46.7832C219.049 46.5566 218.656 46.248 218.379 45.8574C218.105 45.4668 217.969 45.0234 217.969 44.5273H219.1C219.1 45.043 219.289 45.4512 219.668 45.752C220.051 46.0488 220.561 46.1973 221.197 46.1973C221.791 46.1973 222.246 46.0762 222.562 45.834C222.879 45.5918 223.037 45.2617 223.037 44.8438C223.037 44.4258 222.891 44.1035 222.598 43.877C222.305 43.6465 221.773 43.4199 221.004 43.1973ZM229.359 46.373C228.938 46.8691 228.318 47.1172 227.502 47.1172C226.826 47.1172 226.311 46.9219 225.955 46.5312C225.604 46.1367 225.426 45.5547 225.422 44.7852V40.6602H226.506V44.7559C226.506 45.7168 226.896 46.1973 227.678 46.1973C228.506 46.1973 229.057 45.8887 229.33 45.2715V40.6602H230.414V47H229.383L229.359 46.373ZM237.434 43.9004C237.434 44.8691 237.211 45.6484 236.766 46.2383C236.32 46.8242 235.723 47.1172 234.973 47.1172C234.172 47.1172 233.553 46.834 233.115 46.2676L233.062 47H232.066V38H233.15V41.3574C233.588 40.8145 234.191 40.543 234.961 40.543C235.73 40.543 236.334 40.834 236.771 41.416C237.213 41.998 237.434 42.7949 237.434 43.8066V43.9004ZM236.35 43.7773C236.35 43.0391 236.207 42.4688 235.922 42.0664C235.637 41.6641 235.227 41.4629 234.691 41.4629C233.977 41.4629 233.463 41.7949 233.15 42.459V45.2012C233.482 45.8652 234 46.1973 234.703 46.1973C235.223 46.1973 235.627 45.9961 235.916 45.5938C236.205 45.1914 236.35 44.5859 236.35 43.7773ZM242.496 45.3184C242.496 45.0254 242.385 44.7988 242.162 44.6387C241.943 44.4746 241.559 44.334 241.008 44.2168C240.461 44.0996 240.025 43.959 239.701 43.7949C239.381 43.6309 239.143 43.4355 238.986 43.209C238.834 42.9824 238.758 42.7129 238.758 42.4004C238.758 41.8809 238.977 41.4414 239.414 41.082C239.855 40.7227 240.418 40.543 241.102 40.543C241.82 40.543 242.402 40.7285 242.848 41.0996C243.297 41.4707 243.521 41.9453 243.521 42.5234H242.432C242.432 42.2266 242.305 41.9707 242.051 41.7559C241.801 41.541 241.484 41.4336 241.102 41.4336C240.707 41.4336 240.398 41.5195 240.176 41.6914C239.953 41.8633 239.842 42.0879 239.842 42.3652C239.842 42.627 239.945 42.8242 240.152 42.957C240.359 43.0898 240.732 43.2168 241.271 43.3379C241.814 43.459 242.254 43.6035 242.59 43.7715C242.926 43.9395 243.174 44.1426 243.334 44.3809C243.498 44.6152 243.58 44.9023 243.58 45.2422C243.58 45.8086 243.354 46.2637 242.9 46.6074C242.447 46.9473 241.859 47.1172 241.137 47.1172C240.629 47.1172 240.18 47.0273 239.789 46.8477C239.398 46.668 239.092 46.418 238.869 46.0977C238.65 45.7734 238.541 45.4238 238.541 45.0488H239.625C239.645 45.4121 239.789 45.7012 240.059 45.916C240.332 46.127 240.691 46.2324 241.137 46.2324C241.547 46.2324 241.875 46.1504 242.121 45.9863C242.371 45.8184 242.496 45.5957 242.496 45.3184ZM247.535 46.2324C247.922 46.2324 248.26 46.1152 248.549 45.8809C248.838 45.6465 248.998 45.3535 249.029 45.002H250.055C250.035 45.3652 249.91 45.7109 249.68 46.0391C249.449 46.3672 249.141 46.6289 248.754 46.8242C248.371 47.0195 247.965 47.1172 247.535 47.1172C246.672 47.1172 245.984 46.8301 245.473 46.2559C244.965 45.6777 244.711 44.8887 244.711 43.8887V43.707C244.711 43.0898 244.824 42.541 245.051 42.0605C245.277 41.5801 245.602 41.207 246.023 40.9414C246.449 40.6758 246.951 40.543 247.529 40.543C248.24 40.543 248.83 40.7559 249.299 41.1816C249.771 41.6074 250.023 42.1602 250.055 42.8398H249.029C248.998 42.4297 248.842 42.0938 248.561 41.832C248.283 41.5664 247.939 41.4336 247.529 41.4336C246.979 41.4336 246.551 41.6328 246.246 42.0312C245.945 42.4258 245.795 42.998 245.795 43.748V43.9531C245.795 44.6836 245.945 45.2461 246.246 45.6406C246.547 46.0352 246.977 46.2324 247.535 46.2324ZM254.338 41.6328C254.174 41.6055 253.996 41.5918 253.805 41.5918C253.094 41.5918 252.611 41.8945 252.357 42.5V47H251.273V40.6602H252.328L252.346 41.3926C252.701 40.8262 253.205 40.543 253.857 40.543C254.068 40.543 254.229 40.5703 254.338 40.625V41.6328ZM256.518 47H255.434V40.6602H256.518V47ZM255.346 38.9785C255.346 38.8027 255.398 38.6543 255.504 38.5332C255.613 38.4121 255.773 38.3516 255.984 38.3516C256.195 38.3516 256.355 38.4121 256.465 38.5332C256.574 38.6543 256.629 38.8027 256.629 38.9785C256.629 39.1543 256.574 39.3008 256.465 39.418C256.355 39.5352 256.195 39.5938 255.984 39.5938C255.773 39.5938 255.613 39.5352 255.504 39.418C255.398 39.3008 255.346 39.1543 255.346 38.9785ZM263.613 43.9004C263.613 44.8652 263.393 45.6426 262.951 46.2324C262.51 46.8223 261.912 47.1172 261.158 47.1172C260.389 47.1172 259.783 46.873 259.342 46.3848V49.4375H258.258V40.6602H259.248L259.301 41.3633C259.742 40.8164 260.355 40.543 261.141 40.543C261.902 40.543 262.504 40.8301 262.945 41.4043C263.391 41.9785 263.613 42.7773 263.613 43.8008V43.9004ZM262.529 43.7773C262.529 43.0625 262.377 42.498 262.072 42.084C261.768 41.6699 261.35 41.4629 260.818 41.4629C260.162 41.4629 259.67 41.7539 259.342 42.3359V45.3652C259.666 45.9434 260.162 46.2324 260.83 46.2324C261.35 46.2324 261.762 46.0273 262.066 45.6172C262.375 45.2031 262.529 44.5898 262.529 43.7773ZM266.467 39.125V40.6602H267.65V41.498H266.467V45.4297C266.467 45.6836 266.52 45.875 266.625 46.0039C266.73 46.1289 266.91 46.1914 267.164 46.1914C267.289 46.1914 267.461 46.168 267.68 46.1211V47C267.395 47.0781 267.117 47.1172 266.848 47.1172C266.363 47.1172 265.998 46.9707 265.752 46.6777C265.506 46.3848 265.383 45.9688 265.383 45.4297V41.498H264.229V40.6602H265.383V39.125H266.467ZM270.1 47H269.016V40.6602H270.1V47ZM268.928 38.9785C268.928 38.8027 268.98 38.6543 269.086 38.5332C269.195 38.4121 269.355 38.3516 269.566 38.3516C269.777 38.3516 269.938 38.4121 270.047 38.5332C270.156 38.6543 270.211 38.8027 270.211 38.9785C270.211 39.1543 270.156 39.3008 270.047 39.418C269.938 39.5352 269.777 39.5938 269.566 39.5938C269.355 39.5938 269.195 39.5352 269.086 39.418C268.98 39.3008 268.928 39.1543 268.928 38.9785ZM271.553 43.7715C271.553 43.1504 271.674 42.5918 271.916 42.0957C272.162 41.5996 272.502 41.2168 272.936 40.9473C273.373 40.6777 273.871 40.543 274.43 40.543C275.293 40.543 275.99 40.8418 276.521 41.4395C277.057 42.0371 277.324 42.832 277.324 43.8242V43.9004C277.324 44.5176 277.205 45.0723 276.967 45.5645C276.732 46.0527 276.395 46.4336 275.953 46.707C275.516 46.9805 275.012 47.1172 274.441 47.1172C273.582 47.1172 272.885 46.8184 272.35 46.2207C271.818 45.623 271.553 44.832 271.553 43.8477V43.7715ZM272.643 43.9004C272.643 44.6035 272.805 45.168 273.129 45.5938C273.457 46.0195 273.895 46.2324 274.441 46.2324C274.992 46.2324 275.43 46.0176 275.754 45.5879C276.078 45.1543 276.24 44.5488 276.24 43.7715C276.24 43.0762 276.074 42.5137 275.742 42.084C275.414 41.6504 274.977 41.4336 274.43 41.4336C273.895 41.4336 273.463 41.6465 273.135 42.0723C272.807 42.498 272.643 43.1074 272.643 43.9004ZM279.709 40.6602L279.744 41.457C280.229 40.8477 280.861 40.543 281.643 40.543C282.982 40.543 283.658 41.2988 283.67 42.8105V47H282.586V42.8047C282.582 42.3477 282.477 42.0098 282.27 41.791C282.066 41.5723 281.748 41.4629 281.314 41.4629C280.963 41.4629 280.654 41.5566 280.389 41.7441C280.123 41.9316 279.916 42.1777 279.768 42.4824V47H278.684V40.6602H279.709Z" fill="black"/>
  <path d="M325.833 14.1667L332.833 18.25L325.833 22.3333V14.1667ZM334 29.3333H317.667V13H316.5V30.5H334V29.3333ZM337.5 27H320V9.5H337.5V27ZM321.167 25.8333H336.333V10.6667H321.167V25.8333Z" fill="#030303"/>
  <path d="M310.621 46.0801H314.664V47H309.49V38.4688H310.621V46.0801ZM316.955 47H315.871V40.6602H316.955V47ZM315.783 38.9785C315.783 38.8027 315.836 38.6543 315.941 38.5332C316.051 38.4121 316.211 38.3516 316.422 38.3516C316.633 38.3516 316.793 38.4121 316.902 38.5332C317.012 38.6543 317.066 38.8027 317.066 38.9785C317.066 39.1543 317.012 39.3008 316.902 39.418C316.793 39.5352 316.633 39.5938 316.422 39.5938C316.211 39.5938 316.051 39.5352 315.941 39.418C315.836 39.3008 315.783 39.1543 315.783 38.9785ZM324.062 43.9004C324.062 44.8691 323.84 45.6484 323.395 46.2383C322.949 46.8242 322.352 47.1172 321.602 47.1172C320.801 47.1172 320.182 46.834 319.744 46.2676L319.691 47H318.695V38H319.779V41.3574C320.217 40.8145 320.82 40.543 321.59 40.543C322.359 40.543 322.963 40.834 323.4 41.416C323.842 41.998 324.062 42.7949 324.062 43.8066V43.9004ZM322.979 43.7773C322.979 43.0391 322.836 42.4688 322.551 42.0664C322.266 41.6641 321.855 41.4629 321.32 41.4629C320.605 41.4629 320.092 41.7949 319.779 42.459V45.2012C320.111 45.8652 320.629 46.1973 321.332 46.1973C321.852 46.1973 322.256 45.9961 322.545 45.5938C322.834 45.1914 322.979 44.5859 322.979 43.7773ZM328.498 41.6328C328.334 41.6055 328.156 41.5918 327.965 41.5918C327.254 41.5918 326.771 41.8945 326.518 42.5V47H325.434V40.6602H326.488L326.506 41.3926C326.861 40.8262 327.365 40.543 328.018 40.543C328.229 40.543 328.389 40.5703 328.498 40.625V41.6328ZM333.18 47C333.117 46.875 333.066 46.6523 333.027 46.332C332.523 46.8555 331.922 47.1172 331.223 47.1172C330.598 47.1172 330.084 46.9414 329.682 46.5898C329.283 46.2344 329.084 45.7852 329.084 45.2422C329.084 44.582 329.334 44.0703 329.834 43.707C330.338 43.3398 331.045 43.1562 331.955 43.1562H333.01V42.6582C333.01 42.2793 332.896 41.9785 332.67 41.7559C332.443 41.5293 332.109 41.416 331.668 41.416C331.281 41.416 330.957 41.5137 330.695 41.709C330.434 41.9043 330.303 42.1406 330.303 42.418H329.213C329.213 42.1016 329.324 41.7969 329.547 41.5039C329.773 41.207 330.078 40.9727 330.461 40.8008C330.848 40.6289 331.271 40.543 331.732 40.543C332.463 40.543 333.035 40.7266 333.449 41.0938C333.863 41.457 334.078 41.959 334.094 42.5996V45.5176C334.094 46.0996 334.168 46.5625 334.316 46.9062V47H333.18ZM331.381 46.1738C331.721 46.1738 332.043 46.0859 332.348 45.9102C332.652 45.7344 332.873 45.5059 333.01 45.2246V43.9238H332.16C330.832 43.9238 330.168 44.3125 330.168 45.0898C330.168 45.4297 330.281 45.6953 330.508 45.8867C330.734 46.0781 331.025 46.1738 331.381 46.1738ZM338.857 41.6328C338.693 41.6055 338.516 41.5918 338.324 41.5918C337.613 41.5918 337.131 41.8945 336.877 42.5V47H335.793V40.6602H336.848L336.865 41.3926C337.221 40.8262 337.725 40.543 338.377 40.543C338.588 40.543 338.748 40.5703 338.857 40.625V41.6328ZM342.039 45.4121L343.516 40.6602H344.676L342.127 47.9785C341.732 49.0332 341.105 49.5605 340.246 49.5605L340.041 49.543L339.637 49.4668V48.5879L339.93 48.6113C340.297 48.6113 340.582 48.5371 340.785 48.3887C340.992 48.2402 341.162 47.9688 341.295 47.5742L341.535 46.9297L339.273 40.6602H340.457L342.039 45.4121Z" fill="black"/>
</svg>
