<svg width="340" height="660" viewBox="0 0 340 660" fill="none"
  xmlns="http://www.w3.org/2000/svg">
  <g clip-path="url(#clip0_322_1559)">
    <path d="M10 621H330V621C330 637.016 317.016 650 301 650H39C22.9837 650 10 637.016 10 621V621Z" fill="white"/>
    <path d="M0 50C0 27.9086 17.9086 10 40 10H300C322.091 10 340 27.9086 340 50V54H0V50Z" fill="white"/>
    <g clip-path="url(#clip1_322_1559)">
      <path d="M85 8H249V8C247.396 8.63337 246.327 10.1651 246.286 11.889L246.242 13.7472V13.7472C246.242 27.6939 234.936 39 220.989 39H113.011C99.0644 39 87.7584 27.6939 87.7584 13.7472V13.7472L87.714 11.889C87.6728 10.1651 86.6038 8.63337 85 8V8Z" fill="black"/>
      <path opacity="0.35" d="M299.667 27.8333H316.334C317.53 27.8333 318.5 28.8033 318.5 29.9999V35.9999C318.5 37.1965 317.53 38.1666 316.334 38.1666H299.667C298.47 38.1666 297.5 37.1965 297.5 35.9999V29.9999C297.5 28.8033 298.47 27.8333 299.667 27.8333Z" stroke="black"/>
      <path opacity="0.4" d="M320 30.9999V34.9999C320.805 34.6612 321.328 33.8731 321.328 32.9999C321.328 32.1268 320.805 31.3387 320 30.9999" fill="black"/>
      <path d="M299 30.4333C299 29.8257 299.493 29.3333 300.1 29.3333H315.9C316.508 29.3333 317 29.8257 317 30.4333V35.5666C317 36.1741 316.508 36.6666 315.9 36.6666H300.1C299.493 36.6666 299 36.1741 299 35.5666V30.4333Z" fill="black"/>
      <path fill-rule="evenodd" clip-rule="evenodd" d="M284.331 29.6079C286.547 29.608 288.678 30.4594 290.284 31.9862C290.405 32.1041 290.598 32.1026 290.717 31.9829L291.873 30.8162C291.933 30.7555 291.967 30.6733 291.966 30.5877C291.966 30.5021 291.931 30.4202 291.87 30.3602C287.655 26.3207 281.005 26.3207 276.79 30.3602C276.729 30.4202 276.695 30.502 276.694 30.5876C276.694 30.6732 276.727 30.7555 276.787 30.8162L277.944 31.9829C278.063 32.1028 278.256 32.1043 278.377 31.9862C279.983 30.4593 282.115 29.6079 284.331 29.6079ZM284.331 33.4036C285.548 33.4035 286.722 33.856 287.625 34.6732C287.747 34.7892 287.939 34.7867 288.058 34.6676L289.213 33.5009C289.274 33.4397 289.307 33.3567 289.306 33.2704C289.305 33.1842 289.27 33.1018 289.208 33.0419C286.46 30.4855 282.204 30.4855 279.456 33.0419C279.394 33.1018 279.358 33.1842 279.357 33.2705C279.357 33.3568 279.39 33.4398 279.451 33.5009L280.606 34.6676C280.725 34.7867 280.917 34.7892 281.039 34.6732C281.941 33.8566 283.114 33.4041 284.331 33.4036ZM286.644 35.9574C286.645 36.0439 286.611 36.1273 286.55 36.1879L284.552 38.2036C284.494 38.2628 284.414 38.2961 284.331 38.2961C284.247 38.2961 284.168 38.2628 284.109 38.2036L282.111 36.1879C282.05 36.1272 282.016 36.0438 282.018 35.9573C282.019 35.8708 282.057 35.7889 282.121 35.7309C283.397 34.652 285.265 34.652 286.54 35.7309C286.605 35.7889 286.642 35.8709 286.644 35.9574Z" fill="black"/>
      <path fill-rule="evenodd" clip-rule="evenodd" d="M270.667 27.6665H269.667C269.115 27.6665 268.667 28.1142 268.667 28.6665V37.3332C268.667 37.8855 269.115 38.3332 269.667 38.3332H270.667C271.219 38.3332 271.667 37.8855 271.667 37.3332V28.6665C271.667 28.1142 271.219 27.6665 270.667 27.6665ZM265 29.9998H266C266.553 29.9998 267 30.4476 267 30.9998V37.3332C267 37.8855 266.553 38.3332 266 38.3332H265C264.448 38.3332 264 37.8855 264 37.3332V30.9998C264 30.4476 264.448 29.9998 265 29.9998ZM261.334 32.3332H260.334C259.781 32.3332 259.334 32.7809 259.334 33.3332V37.3332C259.334 37.8855 259.781 38.3332 260.334 38.3332H261.334C261.886 38.3332 262.334 37.8855 262.334 37.3332V33.3332C262.334 32.7809 261.886 32.3332 261.334 32.3332ZM256.667 34.3332H255.667C255.115 34.3332 254.667 34.7809 254.667 35.3332V37.3332C254.667 37.8855 255.115 38.3332 255.667 38.3332H256.667C257.219 38.3332 257.667 37.8855 257.667 37.3332V35.3332C257.667 34.7809 257.219 34.3332 256.667 34.3332Z" fill="black"/>
      <path d="M33.5146 27.1675C31.2222 27.1675 29.5889 28.7349 29.5889 30.8809V30.8955C29.5889 32.9023 31.0098 34.3818 33.0386 34.3818C34.4888 34.3818 35.4116 33.6421 35.7998 32.8071H35.9463C35.9463 32.8877 35.939 32.9683 35.939 33.0488C35.8584 35.0703 35.1479 36.7109 33.4707 36.7109C32.5405 36.7109 31.8887 36.2275 31.6104 35.4878L31.5884 35.4146H29.728L29.7427 35.4951C30.0796 37.1138 31.5298 38.2637 33.4707 38.2637C36.1294 38.2637 37.7334 36.1543 37.7334 32.5947V32.5801C37.7334 28.7715 35.7705 27.1675 33.5146 27.1675ZM33.5073 32.9316C32.3062 32.9316 31.4346 32.0527 31.4346 30.8296V30.8149C31.4346 29.6357 32.3647 28.7056 33.5293 28.7056C34.7012 28.7056 35.6167 29.6504 35.6167 30.8589V30.8735C35.6167 32.0674 34.7012 32.9316 33.5073 32.9316ZM40.5586 31.1519C41.2324 31.1519 41.7231 30.6392 41.7231 29.9946C41.7231 29.3428 41.2324 28.8374 40.5586 28.8374C39.8921 28.8374 39.394 29.3428 39.394 29.9946C39.394 30.6392 39.8921 31.1519 40.5586 31.1519ZM40.5586 36.5864C41.2324 36.5864 41.7231 36.0811 41.7231 35.4292C41.7231 34.7773 41.2324 34.272 40.5586 34.272C39.8921 34.272 39.394 34.7773 39.394 35.4292C39.394 36.0811 39.8921 36.5864 40.5586 36.5864ZM48.5107 38H50.3198V35.9712H51.7407V34.4111H50.3198V27.4312H47.6465C46.2109 29.6138 44.7095 32.0454 43.3398 34.4258V35.9712H48.5107V38ZM45.0977 34.4551V34.3452C46.123 32.5508 47.3462 30.5952 48.4302 28.9399H48.54V34.4551H45.0977ZM55.6206 38H57.5103V27.4312H55.6279L52.8667 29.3721V31.1519L55.4961 29.2915H55.6206V38Z" fill="black"/>
    </g>
    <path d="M44 0C19.7105 0 0 19.7105 0 44V616C0 640.289 19.7105 660 44 660H296C320.289 660 340 640.289 340 616V44C340 19.7105 320.289 0 296 0H44ZM44 10H296C314.922 10 330 25.0775 330 44V616C330 634.922 314.922 650 296 650H44C25.0775 650 10 634.922 10 616V44C10 25.0775 25.0775 10 44 10Z" fill="#030A1D"/>
  </g>
  <defs>
    <clipPath id="clip0_322_1559">
      <rect width="340" height="660" fill="white"/>
    </clipPath>
    <clipPath id="clip1_322_1559">
      <rect width="334" height="44" fill="white" transform="translate(0 10)"/>
    </clipPath>
  </defs>
</svg>
