<svg width="1316" height="802" viewBox="0 0 1316 802" fill="none"
  xmlns="http://www.w3.org/2000/svg">
  <path d="M36 801V473C214.921 482.137 595.899 520.946 688.437 603.085C780.976 685.224 1144.7 741.997 1315 760.116V801H36Z" fill="#1776EF" stroke="black"/>
  <path d="M76 262H26V476.5H96.5L421.5 504.5L619.5 583L890 700.5L1261.5 781L1241 745.5L873.5 435.5L750 411.5L634.5 521.5L475.5 334.5L421.5 312.5C415.333 359.667 369.7 450.3 236.5 435.5C103.3 420.7 74 313.667 76 262Z" fill="#FF0000" stroke="black"/>
  <path d="M1315 1H50V265.834H93.5195L118.947 151.906C146.982 120.758 230.044 68.258 338.011 107.433C445.979 146.609 443.958 263.003 429.451 316.303H453.411L645.093 248.845L738 411.244L852.911 441.225L1128.7 286.322L1282.24 790.007L1315 801V1Z" fill="#006AA6" stroke="black"/>
  <path d="M271.999 433.5C99.6853 433.5 68.6661 314.833 74.4995 262C99.333 185.5 179.9 44.6 303.5 93C427.1 141.4 436.667 245.833 426 292L463.5 310.5L634.5 233L725.5 388L846 418.5L884.5 413L1138.5 277L1291.5 717.5L1261.5 781L862 433.5L744.5 413L634.5 525L552 433.5L418 310.5C441 355.833 358 433.5 271.999 433.5Z" fill="url(#paint0_linear_103_37)" stroke="black"/>
  <path d="M0 51C0 23.3858 22.3858 1 50 1V1V801H0V51Z" fill="black"/>
  <path d="M25.4471 455C11.4032 518.431 330.91 427.884 598.252 573.147C865.593 718.411 1191.71 763.384 1312 777" stroke="black" stroke-width="50"/>
  <circle cx="250" cy="259" r="175" stroke="black" stroke-width="50"/>
  <path d="M415.5 307.5L864.5 443.5L1276.5 777.5" stroke="black" stroke-width="50"/>
  <path d="M444 320L628 524L760.5 398.5" stroke="black" stroke-width="50"/>
  <path d="M450 310L640.5 242L739.5 398.5" stroke="black" stroke-width="50"/>
  <path d="M858 436.03L1128.87 274L1291 770" stroke="black" stroke-width="50"/>
  <defs>
    <linearGradient id="paint0_linear_103_37" x1="976.5" y1="210" x2="683" y2="712.5" gradientUnits="userSpaceOnUse">
      <stop stop-color="#751BCF"/>
      <stop offset="0.548958" stop-color="#B62586"/>
      <stop offset="1" stop-color="#EFAC59"/>
    </linearGradient>
  </defs>
</svg>
