<svg width="1313" height="801" viewBox="0 0 1313 801" fill="none"
  xmlns="http://www.w3.org/2000/svg">
  <rect width="1312" height="800" rx="50" fill="#A880EA"/>
  <circle cx="250" cy="258" r="175" stroke="black" stroke-width="50"/>
  <path d="M415.5 306.5L864.5 442.5L1276.5 776.5" stroke="black" stroke-width="50"/>
  <path d="M444 319L628 523L760.5 397.5" stroke="black" stroke-width="50"/>
  <path d="M450 309L640.5 241L739.5 397.5" stroke="black" stroke-width="50"/>
  <path d="M858 434.703L1126.37 273L1287 768" stroke="black" stroke-width="50"/>
  <path d="M0 50C0 22.3858 22.3858 0 50 0V0V800H0V50Z" fill="#793C0F"/>
  <path d="M25.4353 454C11.7624 516.84 322.828 427.137 583.108 571.047C843.387 714.957 1160.88 759.511 1278 773" stroke="#793C0F" stroke-width="50"/>
  <path d="M1273.42 747L1312.27 750.403L1311.25 762.075C1309.37 783.508 1290.48 799.361 1269.04 797.484V797.484C1269.02 797.482 1269 797.461 1269 797.437L1273.42 747Z" fill="#793C0F"/>
</svg>
