<svg width="360" height="54" viewBox="0 0 360 54" fill="none"
  xmlns="http://www.w3.org/2000/svg">
  <rect width="360" height="54" fill="white"/>
  <g clip-path="url(#clip0_202_220)">
    <rect x="12" y="11" width="89" height="32" rx="4" fill="#ECECEC"/>
    <path d="M26.5333 25.5333L23.98 31.02L29.4666 28.4666L32.02 22.98L26.5333 25.5333ZM28.72 27.5133C28.58 27.7066 28.38 27.8333 28.1466 27.8733C28.1 27.88 28.0466 27.8866 28 27.8866C27.8133 27.8866 27.64 27.8333 27.4866 27.72C27.2933 27.58 27.1666 27.38 27.1266 27.1466C27.0866 26.9133 27.14 26.6733 27.28 26.4866C27.42 26.2933 27.62 26.1666 27.8533 26.1266C28.0866 26.0866 28.32 26.14 28.5133 26.28C28.7066 26.42 28.8333 26.62 28.8733 26.8533C28.9133 27.0866 28.86 27.32 28.72 27.5133ZM28 21C31.3066 21 34 23.6933 34 27C34 30.3066 31.3066 33 28 33C24.6933 33 22 30.3066 22 27C22 23.6933 24.6933 21 28 21ZM28 20.3333C24.32 20.3333 21.3333 23.32 21.3333 27C21.3333 30.68 24.32 33.6666 28 33.6666C31.68 33.6666 34.6666 30.68 34.6666 27C34.6666 23.32 31.68 20.3333 28 20.3333Z" fill="#030303"/>
    <path d="M52.8291 27.5566H48.7412V30.6191H53.5195V32H47.0117V22.0469H53.4717V23.4414H48.7412V26.1895H52.8291V27.5566ZM57.4229 27.0371L58.8311 24.6035H60.6768L58.4141 28.2471L60.752 32H58.9199L57.4434 29.4707L55.9736 32H54.1279L56.4658 28.2471L54.21 24.6035H56.042L57.4229 27.0371ZM68.2852 28.377C68.2852 29.5208 68.0254 30.4346 67.5059 31.1182C66.9863 31.7972 66.2891 32.1367 65.4141 32.1367C64.6029 32.1367 63.9535 31.8701 63.4658 31.3369V34.8438H61.8047V24.6035H63.3359L63.4043 25.3555C63.8919 24.763 64.555 24.4668 65.3936 24.4668C66.2959 24.4668 67.0023 24.804 67.5127 25.4785C68.0277 26.1484 68.2852 27.0804 68.2852 28.2744V28.377ZM66.6309 28.2334C66.6309 27.4951 66.4827 26.9095 66.1865 26.4766C65.8949 26.0436 65.4756 25.8271 64.9287 25.8271C64.2497 25.8271 63.762 26.1074 63.4658 26.668V29.9492C63.7666 30.5234 64.2588 30.8105 64.9424 30.8105C65.471 30.8105 65.8835 30.5986 66.1797 30.1748C66.4805 29.7464 66.6309 29.0993 66.6309 28.2334ZM71.4639 32H69.8027V21.5H71.4639V32ZM72.9678 28.2334C72.9678 27.5088 73.1113 26.8571 73.3984 26.2783C73.6855 25.695 74.0889 25.2484 74.6084 24.9385C75.1279 24.624 75.7249 24.4668 76.3994 24.4668C77.3975 24.4668 78.2064 24.7881 78.8262 25.4307C79.4505 26.0732 79.7878 26.9255 79.8379 27.9873L79.8447 28.377C79.8447 29.1061 79.7035 29.7578 79.4209 30.332C79.1429 30.9062 78.7419 31.3506 78.2178 31.665C77.6982 31.9795 77.0967 32.1367 76.4131 32.1367C75.3695 32.1367 74.5332 31.7904 73.9043 31.0977C73.2799 30.4004 72.9678 29.473 72.9678 28.3154V28.2334ZM74.6289 28.377C74.6289 29.138 74.7861 29.735 75.1006 30.168C75.415 30.5964 75.8525 30.8105 76.4131 30.8105C76.9736 30.8105 77.4089 30.5918 77.7188 30.1543C78.0332 29.7168 78.1904 29.0765 78.1904 28.2334C78.1904 27.486 78.0286 26.8936 77.7051 26.4561C77.3861 26.0186 76.9508 25.7998 76.3994 25.7998C75.8571 25.7998 75.4264 26.0163 75.1074 26.4492C74.7884 26.8776 74.6289 27.5202 74.6289 28.377ZM85.1221 26.1211C84.9033 26.0846 84.6777 26.0664 84.4453 26.0664C83.6842 26.0664 83.1715 26.3581 82.9072 26.9414V32H81.2461V24.6035H82.832L82.873 25.4307C83.2741 24.7881 83.8301 24.4668 84.541 24.4668C84.778 24.4668 84.974 24.4987 85.1289 24.5625L85.1221 26.1211ZM89.292 32.1367C88.2393 32.1367 87.3848 31.8063 86.7285 31.1455C86.0768 30.4801 85.751 29.596 85.751 28.4932V28.2881C85.751 27.5498 85.8923 26.8913 86.1748 26.3125C86.4619 25.7292 86.863 25.2757 87.3779 24.9521C87.8929 24.6286 88.4671 24.4668 89.1006 24.4668C90.1077 24.4668 90.8848 24.7881 91.4316 25.4307C91.9831 26.0732 92.2588 26.9824 92.2588 28.1582V28.8281H87.4258C87.4759 29.4388 87.6787 29.9219 88.0342 30.2773C88.3942 30.6328 88.8454 30.8105 89.3877 30.8105C90.1488 30.8105 90.7686 30.5029 91.2471 29.8877L92.1426 30.7422C91.8464 31.1842 91.4499 31.5283 90.9531 31.7744C90.4609 32.016 89.9072 32.1367 89.292 32.1367ZM89.0938 25.7998C88.638 25.7998 88.2689 25.9593 87.9863 26.2783C87.7083 26.5973 87.5306 27.0417 87.4531 27.6113H90.6182V27.4883C90.5817 26.9323 90.4336 26.513 90.1738 26.2305C89.9141 25.9434 89.554 25.7998 89.0938 25.7998Z" fill="black"/>
    <line x1="115.5" y1="17" x2="115.5" y2="37" stroke="#CECECE"/>
    <g clip-path="url(#clip1_202_220)">
      <rect x="131" y="12" width="38" height="30" rx="15" fill="#3B3B3B"/>
      <path d="M147.148 23.2246L144.324 31H143.17L146.422 22.4688H147.166L147.148 23.2246ZM149.516 31L146.686 23.2246L146.668 22.4688H147.412L150.676 31H149.516ZM149.369 27.8418V28.7676H144.576V27.8418H149.369ZM152.832 22V31H151.742V22H152.832ZM155.75 22V31H154.66V22H155.75Z" fill="white"/>
      <rect x="131" y="12" width="38" height="30" rx="15" stroke="#6C6C6C"/>
      <rect x="173" y="12" width="56" height="30" rx="15" fill="#ECECEC"/>
      <path d="M186.348 22.4688H187.443L190.238 29.4238L193.027 22.4688H194.129L190.66 31H189.805L186.348 22.4688ZM185.99 22.4688H186.957L187.115 27.6719V31H185.99V22.4688ZM193.514 22.4688H194.48V31H193.355V27.6719L193.514 22.4688ZM197.48 24.6602V31H196.391V24.6602H197.48ZM196.309 22.9785C196.309 22.8027 196.361 22.6543 196.467 22.5332C196.576 22.4121 196.736 22.3516 196.947 22.3516C197.154 22.3516 197.312 22.4121 197.422 22.5332C197.535 22.6543 197.592 22.8027 197.592 22.9785C197.592 23.1465 197.535 23.291 197.422 23.4121C197.312 23.5293 197.154 23.5879 196.947 23.5879C196.736 23.5879 196.576 23.5293 196.467 23.4121C196.361 23.291 196.309 23.1465 196.309 22.9785ZM199.953 24.6602L201.342 26.9688L202.748 24.6602H204.02L201.945 27.7891L204.084 31H202.83L201.365 28.6211L199.9 31H198.641L200.773 27.7891L198.705 24.6602H199.953ZM207.688 31.1172C207.246 31.1172 206.846 31.043 206.486 30.8945C206.131 30.7422 205.824 30.5293 205.566 30.2559C205.312 29.9824 205.117 29.6582 204.98 29.2832C204.844 28.9082 204.775 28.498 204.775 28.0527V27.8066C204.775 27.291 204.852 26.832 205.004 26.4297C205.156 26.0234 205.363 25.6797 205.625 25.3984C205.887 25.1172 206.184 24.9043 206.516 24.7598C206.848 24.6152 207.191 24.543 207.547 24.543C208 24.543 208.391 24.6211 208.719 24.7773C209.051 24.9336 209.322 25.1523 209.533 25.4336C209.744 25.7109 209.9 26.0391 210.002 26.418C210.104 26.793 210.154 27.2031 210.154 27.6484V28.1348H205.42V27.25H209.07V27.168C209.055 26.8867 208.996 26.6133 208.895 26.3477C208.797 26.082 208.641 25.8633 208.426 25.6914C208.211 25.5195 207.918 25.4336 207.547 25.4336C207.301 25.4336 207.074 25.4863 206.867 25.5918C206.66 25.6934 206.482 25.8457 206.334 26.0488C206.186 26.252 206.07 26.5 205.988 26.793C205.906 27.0859 205.865 27.4238 205.865 27.8066V28.0527C205.865 28.3535 205.906 28.6367 205.988 28.9023C206.074 29.1641 206.197 29.3945 206.357 29.5938C206.521 29.793 206.719 29.9492 206.949 30.0625C207.184 30.1758 207.449 30.2324 207.746 30.2324C208.129 30.2324 208.453 30.1543 208.719 29.998C208.984 29.8418 209.217 29.6328 209.416 29.3711L210.072 29.8926C209.936 30.0996 209.762 30.2969 209.551 30.4844C209.34 30.6719 209.08 30.8242 208.771 30.9414C208.467 31.0586 208.105 31.1172 207.688 31.1172ZM215.111 29.3184C215.111 29.1621 215.076 29.0176 215.006 28.8848C214.939 28.748 214.801 28.625 214.59 28.5156C214.383 28.4023 214.07 28.3047 213.652 28.2227C213.301 28.1484 212.982 28.0605 212.697 27.959C212.416 27.8574 212.176 27.7344 211.977 27.5898C211.781 27.4453 211.631 27.2754 211.525 27.0801C211.42 26.8848 211.367 26.6562 211.367 26.3945C211.367 26.1445 211.422 25.9082 211.531 25.6855C211.645 25.4629 211.803 25.2656 212.006 25.0938C212.213 24.9219 212.461 24.7871 212.75 24.6895C213.039 24.5918 213.361 24.543 213.717 24.543C214.225 24.543 214.658 24.6328 215.018 24.8125C215.377 24.9922 215.652 25.2324 215.844 25.5332C216.035 25.8301 216.131 26.1602 216.131 26.5234H215.047C215.047 26.3477 214.994 26.1777 214.889 26.0137C214.787 25.8457 214.637 25.707 214.438 25.5977C214.242 25.4883 214.002 25.4336 213.717 25.4336C213.416 25.4336 213.172 25.4805 212.984 25.5742C212.801 25.6641 212.666 25.7793 212.58 25.9199C212.498 26.0605 212.457 26.209 212.457 26.3652C212.457 26.4824 212.477 26.5879 212.516 26.6816C212.559 26.7715 212.633 26.8555 212.738 26.9336C212.844 27.0078 212.992 27.0781 213.184 27.1445C213.375 27.2109 213.619 27.2773 213.916 27.3438C214.436 27.4609 214.863 27.6016 215.199 27.7656C215.535 27.9297 215.785 28.1309 215.949 28.3691C216.113 28.6074 216.195 28.8965 216.195 29.2363C216.195 29.5137 216.137 29.7676 216.02 29.998C215.906 30.2285 215.74 30.4277 215.521 30.5957C215.307 30.7598 215.049 30.8887 214.748 30.9824C214.451 31.0723 214.117 31.1172 213.746 31.1172C213.188 31.1172 212.715 31.0176 212.328 30.8184C211.941 30.6191 211.648 30.3613 211.449 30.0449C211.25 29.7285 211.15 29.3945 211.15 29.043H212.24C212.256 29.3398 212.342 29.5762 212.498 29.752C212.654 29.9238 212.846 30.0469 213.072 30.1211C213.299 30.1914 213.523 30.2266 213.746 30.2266C214.043 30.2266 214.291 30.1875 214.49 30.1094C214.693 30.0312 214.848 29.9238 214.953 29.7871C215.059 29.6504 215.111 29.4941 215.111 29.3184Z" fill="black"/>
      <rect x="173" y="12" width="56" height="30" rx="15" stroke="#CECECE"/>
      <rect x="233" y="12" width="57" height="30" rx="15" fill="#ECECEC"/>
      <path d="M246.348 22.4688H247.443L250.238 29.4238L253.027 22.4688H254.129L250.66 31H249.805L246.348 22.4688ZM245.99 22.4688H246.957L247.115 27.6719V31H245.99V22.4688ZM253.514 22.4688H254.48V31H253.355V27.6719L253.514 22.4688ZM260.182 29.5352V24.6602H261.271V31H260.234L260.182 29.5352ZM260.387 28.1992L260.838 28.1875C260.838 28.6094 260.793 29 260.703 29.3594C260.617 29.7148 260.477 30.0234 260.281 30.2852C260.086 30.5469 259.83 30.752 259.514 30.9004C259.197 31.0449 258.812 31.1172 258.359 31.1172C258.051 31.1172 257.768 31.0723 257.51 30.9824C257.256 30.8926 257.037 30.7539 256.854 30.5664C256.67 30.3789 256.527 30.1348 256.426 29.834C256.328 29.5332 256.279 29.1719 256.279 28.75V24.6602H257.363V28.7617C257.363 29.0469 257.395 29.2832 257.457 29.4707C257.523 29.6543 257.611 29.8008 257.721 29.9102C257.834 30.0156 257.959 30.0898 258.096 30.1328C258.236 30.1758 258.381 30.1973 258.529 30.1973C258.99 30.1973 259.355 30.1094 259.625 29.9336C259.895 29.7539 260.088 29.5137 260.205 29.2129C260.326 28.9082 260.387 28.5703 260.387 28.1992ZM266.615 29.3184C266.615 29.1621 266.58 29.0176 266.51 28.8848C266.443 28.748 266.305 28.625 266.094 28.5156C265.887 28.4023 265.574 28.3047 265.156 28.2227C264.805 28.1484 264.486 28.0605 264.201 27.959C263.92 27.8574 263.68 27.7344 263.48 27.5898C263.285 27.4453 263.135 27.2754 263.029 27.0801C262.924 26.8848 262.871 26.6562 262.871 26.3945C262.871 26.1445 262.926 25.9082 263.035 25.6855C263.148 25.4629 263.307 25.2656 263.51 25.0938C263.717 24.9219 263.965 24.7871 264.254 24.6895C264.543 24.5918 264.865 24.543 265.221 24.543C265.729 24.543 266.162 24.6328 266.521 24.8125C266.881 24.9922 267.156 25.2324 267.348 25.5332C267.539 25.8301 267.635 26.1602 267.635 26.5234H266.551C266.551 26.3477 266.498 26.1777 266.393 26.0137C266.291 25.8457 266.141 25.707 265.941 25.5977C265.746 25.4883 265.506 25.4336 265.221 25.4336C264.92 25.4336 264.676 25.4805 264.488 25.5742C264.305 25.6641 264.17 25.7793 264.084 25.9199C264.002 26.0605 263.961 26.209 263.961 26.3652C263.961 26.4824 263.98 26.5879 264.02 26.6816C264.062 26.7715 264.137 26.8555 264.242 26.9336C264.348 27.0078 264.496 27.0781 264.688 27.1445C264.879 27.2109 265.123 27.2773 265.42 27.3438C265.939 27.4609 266.367 27.6016 266.703 27.7656C267.039 27.9297 267.289 28.1309 267.453 28.3691C267.617 28.6074 267.699 28.8965 267.699 29.2363C267.699 29.5137 267.641 29.7676 267.523 29.998C267.41 30.2285 267.244 30.4277 267.025 30.5957C266.811 30.7598 266.553 30.8887 266.252 30.9824C265.955 31.0723 265.621 31.1172 265.25 31.1172C264.691 31.1172 264.219 31.0176 263.832 30.8184C263.445 30.6191 263.152 30.3613 262.953 30.0449C262.754 29.7285 262.654 29.3945 262.654 29.043H263.744C263.76 29.3398 263.846 29.5762 264.002 29.752C264.158 29.9238 264.35 30.0469 264.576 30.1211C264.803 30.1914 265.027 30.2266 265.25 30.2266C265.547 30.2266 265.795 30.1875 265.994 30.1094C266.197 30.0312 266.352 29.9238 266.457 29.7871C266.562 29.6504 266.615 29.4941 266.615 29.3184ZM270.301 24.6602V31H269.211V24.6602H270.301ZM269.129 22.9785C269.129 22.8027 269.182 22.6543 269.287 22.5332C269.396 22.4121 269.557 22.3516 269.768 22.3516C269.975 22.3516 270.133 22.4121 270.242 22.5332C270.355 22.6543 270.412 22.8027 270.412 22.9785C270.412 23.1465 270.355 23.291 270.242 23.4121C270.133 23.5293 269.975 23.5879 269.768 23.5879C269.557 23.5879 269.396 23.5293 269.287 23.4121C269.182 23.291 269.129 23.1465 269.129 22.9785ZM274.578 30.2266C274.836 30.2266 275.074 30.1738 275.293 30.0684C275.512 29.9629 275.691 29.8184 275.832 29.6348C275.973 29.4473 276.053 29.2344 276.072 28.9961H277.104C277.084 29.3711 276.957 29.7207 276.723 30.0449C276.492 30.3652 276.189 30.625 275.814 30.8242C275.439 31.0195 275.027 31.1172 274.578 31.1172C274.102 31.1172 273.686 31.0332 273.33 30.8652C272.979 30.6973 272.686 30.4668 272.451 30.1738C272.221 29.8809 272.047 29.5449 271.93 29.166C271.816 28.7832 271.76 28.3789 271.76 27.9531V27.707C271.76 27.2812 271.816 26.8789 271.93 26.5C272.047 26.1172 272.221 25.7793 272.451 25.4863C272.686 25.1934 272.979 24.9629 273.33 24.7949C273.686 24.627 274.102 24.543 274.578 24.543C275.074 24.543 275.508 24.6445 275.879 24.8477C276.25 25.0469 276.541 25.3203 276.752 25.668C276.967 26.0117 277.084 26.4023 277.104 26.8398H276.072C276.053 26.5781 275.979 26.3418 275.85 26.1309C275.725 25.9199 275.553 25.752 275.334 25.627C275.119 25.498 274.867 25.4336 274.578 25.4336C274.246 25.4336 273.967 25.5 273.74 25.6328C273.518 25.7617 273.34 25.9375 273.207 26.1602C273.078 26.3789 272.984 26.623 272.926 26.8926C272.871 27.1582 272.844 27.4297 272.844 27.707V27.9531C272.844 28.2305 272.871 28.5039 272.926 28.7734C272.98 29.043 273.072 29.2871 273.201 29.5059C273.334 29.7246 273.512 29.9004 273.734 30.0332C273.961 30.1621 274.242 30.2266 274.578 30.2266Z" fill="black"/>
      <rect x="233" y="12" width="57" height="30" rx="15" stroke="#CECECE"/>
      <rect x="294" y="12" width="66" height="30" rx="15" fill="#ECECEC"/>
      <path d="M313.295 26.752V29.875C313.189 30.0312 313.021 30.207 312.791 30.4023C312.561 30.5938 312.242 30.7617 311.836 30.9062C311.434 31.0469 310.914 31.1172 310.277 31.1172C309.758 31.1172 309.279 31.0273 308.842 30.8477C308.408 30.6641 308.031 30.3984 307.711 30.0508C307.395 29.6992 307.148 29.2734 306.973 28.7734C306.801 28.2695 306.715 27.6992 306.715 27.0625V26.4004C306.715 25.7637 306.789 25.1953 306.938 24.6953C307.09 24.1953 307.312 23.7715 307.605 23.4238C307.898 23.0723 308.258 22.8066 308.684 22.627C309.109 22.4434 309.598 22.3516 310.148 22.3516C310.801 22.3516 311.346 22.4648 311.783 22.6914C312.225 22.9141 312.568 23.2227 312.814 23.6172C313.064 24.0117 313.225 24.4609 313.295 24.9648H312.164C312.113 24.6562 312.012 24.375 311.859 24.1211C311.711 23.8672 311.498 23.6641 311.221 23.5117C310.943 23.3555 310.586 23.2773 310.148 23.2773C309.754 23.2773 309.412 23.3496 309.123 23.4941C308.834 23.6387 308.596 23.8457 308.408 24.1152C308.221 24.3848 308.08 24.7109 307.986 25.0938C307.896 25.4766 307.852 25.9082 307.852 26.3887V27.0625C307.852 27.5547 307.908 27.9941 308.021 28.3809C308.139 28.7676 308.305 29.0977 308.52 29.3711C308.734 29.6406 308.99 29.8457 309.287 29.9863C309.588 30.127 309.92 30.1973 310.283 30.1973C310.686 30.1973 311.012 30.1641 311.262 30.0977C311.512 30.0273 311.707 29.9453 311.848 29.8516C311.988 29.7539 312.096 29.6621 312.17 29.5762V27.666H310.195V26.752H313.295ZM316.09 25.6562V31H315.006V24.6602H316.061L316.09 25.6562ZM318.07 24.625L318.064 25.6328C317.975 25.6133 317.889 25.6016 317.807 25.5977C317.729 25.5898 317.639 25.5859 317.537 25.5859C317.287 25.5859 317.066 25.625 316.875 25.7031C316.684 25.7812 316.521 25.8906 316.389 26.0312C316.256 26.1719 316.15 26.3398 316.072 26.5352C315.998 26.7266 315.949 26.9375 315.926 27.168L315.621 27.3438C315.621 26.9609 315.658 26.6016 315.732 26.2656C315.811 25.9297 315.93 25.6328 316.09 25.375C316.25 25.1133 316.453 24.9102 316.699 24.7656C316.949 24.6172 317.246 24.543 317.59 24.543C317.668 24.543 317.758 24.5527 317.859 24.5723C317.961 24.5879 318.031 24.6055 318.07 24.625ZM322.576 29.916V26.6523C322.576 26.4023 322.525 26.1855 322.424 26.002C322.326 25.8145 322.178 25.6699 321.979 25.5684C321.779 25.4668 321.533 25.416 321.24 25.416C320.967 25.416 320.727 25.4629 320.52 25.5566C320.316 25.6504 320.156 25.7734 320.039 25.9258C319.926 26.0781 319.869 26.2422 319.869 26.418H318.785C318.785 26.1914 318.844 25.9668 318.961 25.7441C319.078 25.5215 319.246 25.3203 319.465 25.1406C319.688 24.957 319.953 24.8125 320.262 24.707C320.574 24.5977 320.922 24.543 321.305 24.543C321.766 24.543 322.172 24.6211 322.523 24.7773C322.879 24.9336 323.156 25.1699 323.355 25.4863C323.559 25.7988 323.66 26.1914 323.66 26.6641V29.6172C323.66 29.8281 323.678 30.0527 323.713 30.291C323.752 30.5293 323.809 30.7344 323.883 30.9062V31H322.752C322.697 30.875 322.654 30.709 322.623 30.502C322.592 30.291 322.576 30.0957 322.576 29.916ZM322.764 27.1562L322.775 27.918H321.68C321.371 27.918 321.096 27.9434 320.854 27.9941C320.611 28.041 320.408 28.1133 320.244 28.2109C320.08 28.3086 319.955 28.4316 319.869 28.5801C319.783 28.7246 319.74 28.8945 319.74 29.0898C319.74 29.2891 319.785 29.4707 319.875 29.6348C319.965 29.7988 320.1 29.9297 320.279 30.0273C320.463 30.1211 320.688 30.168 320.953 30.168C321.285 30.168 321.578 30.0977 321.832 29.957C322.086 29.8164 322.287 29.6445 322.436 29.4414C322.588 29.2383 322.67 29.041 322.682 28.8496L323.145 29.3711C323.117 29.5352 323.043 29.7168 322.922 29.916C322.801 30.1152 322.639 30.3066 322.436 30.4902C322.236 30.6699 321.998 30.8203 321.721 30.9414C321.447 31.0586 321.139 31.1172 320.795 31.1172C320.365 31.1172 319.988 31.0332 319.664 30.8652C319.344 30.6973 319.094 30.4727 318.914 30.1914C318.738 29.9062 318.65 29.5879 318.65 29.2363C318.65 28.8965 318.717 28.5977 318.85 28.3398C318.982 28.0781 319.174 27.8613 319.424 27.6895C319.674 27.5137 319.975 27.3809 320.326 27.291C320.678 27.2012 321.07 27.1562 321.504 27.1562H322.764ZM326.449 25.8789V33.4375H325.359V24.6602H326.355L326.449 25.8789ZM330.721 27.7773V27.9004C330.721 28.3613 330.666 28.7891 330.557 29.1836C330.447 29.5742 330.287 29.9141 330.076 30.2031C329.869 30.4922 329.613 30.7168 329.309 30.877C329.004 31.0371 328.654 31.1172 328.26 31.1172C327.857 31.1172 327.502 31.0508 327.193 30.918C326.885 30.7852 326.623 30.5918 326.408 30.3379C326.193 30.084 326.021 29.7793 325.893 29.4238C325.768 29.0684 325.682 28.668 325.635 28.2227V27.5664C325.682 27.0977 325.77 26.6777 325.898 26.3066C326.027 25.9355 326.197 25.6191 326.408 25.3574C326.623 25.0918 326.883 24.8906 327.188 24.7539C327.492 24.6133 327.844 24.543 328.242 24.543C328.641 24.543 328.994 24.6211 329.303 24.7773C329.611 24.9297 329.871 25.1484 330.082 25.4336C330.293 25.7188 330.451 26.0605 330.557 26.459C330.666 26.8535 330.721 27.293 330.721 27.7773ZM329.631 27.9004V27.7773C329.631 27.4609 329.598 27.1641 329.531 26.8867C329.465 26.6055 329.361 26.3594 329.221 26.1484C329.084 25.9336 328.908 25.7656 328.693 25.6445C328.479 25.5195 328.223 25.457 327.926 25.457C327.652 25.457 327.414 25.5039 327.211 25.5977C327.012 25.6914 326.842 25.8184 326.701 25.9785C326.561 26.1348 326.445 26.3145 326.355 26.5176C326.27 26.7168 326.205 26.9238 326.162 27.1387V28.6562C326.24 28.9297 326.35 29.1875 326.49 29.4297C326.631 29.668 326.818 29.8613 327.053 30.0098C327.287 30.1543 327.582 30.2266 327.938 30.2266C328.23 30.2266 328.482 30.166 328.693 30.0449C328.908 29.9199 329.084 29.75 329.221 29.5352C329.361 29.3203 329.465 29.0742 329.531 28.7969C329.598 28.5156 329.631 28.2168 329.631 27.9004ZM333.188 22V31H332.104V22H333.188ZM332.93 27.5898L332.479 27.5723C332.482 27.1387 332.547 26.7383 332.672 26.3711C332.797 26 332.973 25.6777 333.199 25.4043C333.426 25.1309 333.695 24.9199 334.008 24.7715C334.324 24.6191 334.674 24.543 335.057 24.543C335.369 24.543 335.65 24.5859 335.9 24.6719C336.15 24.7539 336.363 24.8867 336.539 25.0703C336.719 25.2539 336.855 25.4922 336.949 25.7852C337.043 26.0742 337.09 26.4277 337.09 26.8457V31H336V26.834C336 26.502 335.951 26.2363 335.854 26.0371C335.756 25.834 335.613 25.6875 335.426 25.5977C335.238 25.5039 335.008 25.457 334.734 25.457C334.465 25.457 334.219 25.5137 333.996 25.627C333.777 25.7402 333.588 25.8965 333.428 26.0957C333.271 26.2949 333.148 26.5234 333.059 26.7812C332.973 27.0352 332.93 27.3047 332.93 27.5898ZM339.891 24.6602V31H338.801V24.6602H339.891ZM338.719 22.9785C338.719 22.8027 338.771 22.6543 338.877 22.5332C338.986 22.4121 339.146 22.3516 339.357 22.3516C339.564 22.3516 339.723 22.4121 339.832 22.5332C339.945 22.6543 340.002 22.8027 340.002 22.9785C340.002 23.1465 339.945 23.291 339.832 23.4121C339.723 23.5293 339.564 23.5879 339.357 23.5879C339.146 23.5879 338.986 23.5293 338.877 23.4121C338.771 23.291 338.719 23.1465 338.719 22.9785ZM344.168 30.2266C344.426 30.2266 344.664 30.1738 344.883 30.0684C345.102 29.9629 345.281 29.8184 345.422 29.6348C345.562 29.4473 345.643 29.2344 345.662 28.9961H346.693C346.674 29.3711 346.547 29.7207 346.312 30.0449C346.082 30.3652 345.779 30.625 345.404 30.8242C345.029 31.0195 344.617 31.1172 344.168 31.1172C343.691 31.1172 343.275 31.0332 342.92 30.8652C342.568 30.6973 342.275 30.4668 342.041 30.1738C341.811 29.8809 341.637 29.5449 341.52 29.166C341.406 28.7832 341.35 28.3789 341.35 27.9531V27.707C341.35 27.2812 341.406 26.8789 341.52 26.5C341.637 26.1172 341.811 25.7793 342.041 25.4863C342.275 25.1934 342.568 24.9629 342.92 24.7949C343.275 24.627 343.691 24.543 344.168 24.543C344.664 24.543 345.098 24.6445 345.469 24.8477C345.84 25.0469 346.131 25.3203 346.342 25.668C346.557 26.0117 346.674 26.4023 346.693 26.8398H345.662C345.643 26.5781 345.568 26.3418 345.439 26.1309C345.314 25.9199 345.143 25.752 344.924 25.627C344.709 25.498 344.457 25.4336 344.168 25.4336C343.836 25.4336 343.557 25.5 343.33 25.6328C343.107 25.7617 342.93 25.9375 342.797 26.1602C342.668 26.3789 342.574 26.623 342.516 26.8926C342.461 27.1582 342.434 27.4297 342.434 27.707V27.9531C342.434 28.2305 342.461 28.5039 342.516 28.7734C342.57 29.043 342.662 29.2871 342.791 29.5059C342.924 29.7246 343.102 29.9004 343.324 30.0332C343.551 30.1621 343.832 30.2266 344.168 30.2266Z" fill="black"/>
      <rect x="294" y="12" width="66" height="30" rx="15" stroke="#CECECE"/>
    </g>
  </g>
  <defs>
    <clipPath id="clip0_202_220">
      <rect width="338" height="34" fill="white" transform="translate(12 10)"/>
    </clipPath>
    <clipPath id="clip1_202_220">
      <rect width="231" height="34" fill="white" transform="translate(129 10)"/>
    </clipPath>
  </defs>
</svg>
