<svg width="116" height="116" viewBox="0 0 116 116" fill="none"
  xmlns="http://www.w3.org/2000/svg">
  <path d="M48.1669 47.415C47.6709 47.415 47.2649 47.586 46.9519 47.931C46.6389 48.275 46.4829 48.79 46.4829 49.477V62.707C46.4829 63.395 46.6409 63.912 46.9579 64.259C47.2739 64.608 47.6769 64.78 48.1669 64.78C48.6789 64.78 49.0929 64.609 49.4089 64.264C49.7249 63.92 49.8839 63.402 49.8839 62.706V49.476C49.8839 48.781 49.7259 48.264 49.4089 47.923C49.0929 47.585 48.6789 47.415 48.1669 47.415Z" fill="black"/>
  <path d="M66.2069 47.415C65.7339 47.415 65.3569 47.578 65.0799 47.902C64.8009 48.227 64.6619 48.714 64.6619 49.362V59.351L58.1209 49.454C57.9369 49.164 57.7599 48.886 57.5879 48.618C57.4159 48.35 57.2479 48.133 57.0839 47.966C56.9199 47.798 56.7289 47.664 56.5119 47.564C56.2949 47.465 56.0319 47.416 55.7269 47.416C55.3359 47.416 54.9749 47.525 54.6389 47.743C54.3029 47.96 54.0609 48.241 53.9159 48.584C53.7949 48.897 53.7339 49.329 53.7339 49.878V62.833C53.7339 63.467 53.8789 63.949 54.1699 64.281C54.4589 64.613 54.8439 64.78 55.3259 64.78C55.7909 64.78 56.1739 64.615 56.4709 64.287C56.7699 63.959 56.9179 63.474 56.9179 62.833V52.994L63.2989 62.776C63.4809 63.044 63.6639 63.305 63.8479 63.561C64.0319 63.817 64.2309 64.04 64.4439 64.231C64.6589 64.422 64.8869 64.561 65.1319 64.649C65.3769 64.737 65.6519 64.781 65.9559 64.781C67.1789 64.781 67.7899 64.044 67.7899 62.571V49.362C67.7899 48.713 67.6469 48.226 67.3659 47.902C67.0819 47.578 66.6949 47.415 66.2069 47.415Z" fill="black"/>
  <path d="M42.4059 61.699H35.5099V49.477C35.5099 48.782 35.3519 48.265 35.0329 47.924C34.7169 47.585 34.3029 47.415 33.7909 47.415C33.2869 47.415 32.8809 47.586 32.5719 47.931C32.2609 48.275 32.1069 48.79 32.1069 49.477V62.409C32.1069 63.142 32.2689 63.674 32.5929 64.002C32.9189 64.33 33.4499 64.494 34.1929 64.494H42.4059C42.9629 64.494 43.3859 64.367 43.6769 64.11C43.9659 63.853 44.1129 63.519 44.1129 63.107C44.1129 62.703 43.9649 62.367 43.6699 62.099C43.3759 61.833 42.9549 61.699 42.4059 61.699Z" fill="black"/>
  <path d="M57.834 0C25.892 0 0 25.893 0 57.834C0 89.774 25.893 115.668 57.834 115.668C89.773 115.668 115.668 89.773 115.668 57.834C115.667 25.893 89.773 0 57.834 0ZM92.695 61.588C90.894 66.557 87.621 70.988 83.299 74.526C77.049 80.384 69.836 84.991 65.319 88.211C56.878 94.227 55.083 93.758 54.339 93.002C53.528 92.178 55.835 88.648 56.036 85.416C56.143 83.654 54.368 83.129 53.86 83.039C35.608 81.383 21.399 68.443 21.399 52.726C21.399 35.884 37.71 22.231 57.831 22.231C77.95 22.231 94.263 35.884 94.263 52.726C94.359 55.887 93.773 58.836 92.695 61.588Z" fill="black"/>
  <path d="M82.839 61.791H74.913V57.014H81.97C82.495 57.014 82.886 56.893 83.136 56.653C83.39 56.413 83.515 56.102 83.515 55.72C83.515 55.338 83.388 55.031 83.132 54.798C82.876 54.566 82.487 54.449 81.97 54.449H74.913V50.325H82.575C83.118 50.325 83.52 50.204 83.784 49.964C84.048 49.724 84.179 49.405 84.179 49.008C84.179 48.618 84.048 48.303 83.784 48.063C83.52 47.823 83.118 47.702 82.575 47.702H73.595C73.115 47.702 72.72 47.773 72.409 47.914C72.1 48.056 71.874 48.28 71.727 48.59C71.582 48.9 71.51 49.298 71.51 49.787V62.41C71.51 63.143 71.672 63.675 71.996 64.003C72.32 64.331 72.853 64.495 73.594 64.495H82.838C83.373 64.495 83.776 64.37 84.047 64.122C84.317 63.875 84.453 63.552 84.453 63.155C84.453 62.742 84.316 62.412 84.047 62.164C83.777 61.914 83.375 61.791 82.839 61.791Z" fill="black"/>
</svg>
